<?xml version="1.0" encoding="utf-8"?>
<!-- Generator: Adobe Illustrator 21.1.0, SVG Export Plug-In . SVG Version: 6.00 Build 0)  -->
<svg version="1.1" id="Calque_1" xmlns="http://www.w3.org/2000/svg" xmlns:xlink="http://www.w3.org/1999/xlink" x="0px" y="0px"
	 viewBox="0 0 500 500" style="enable-background:new 0 0 500 500;" xml:space="preserve">
<style type="text/css">
	.st0{fill:#EFC9AF;}
	.st1{fill:#C69C6C;}
	.st2{fill:#020203;}
	.st3{fill:#603914;}
	.st4{fill:#C1292E;}
	.st5{fill:#A67D52;}
	.st6{fill:#343434;}
	.st7{fill:#C7B29A;}
	.st8{fill:#754D24;}
	.st9{fill:#412413;}
	.st10{fill:#1B1B1B;}
	.st11{fill:#9E1460;}
	.st12{fill:#E7267A;}
	.st13{fill:#998675;}
	.st14{fill:#676767;}
	.st15{fill:#BEC1A5;}
	.st16{fill:#8D7968;}
	.st17{fill:#A6A184;}
	.st18{fill:#5B4841;}
	.st19{fill:#C1A07F;}
	.st20{fill:#72403F;}
	.st21{fill:#AA8767;}
	.st22{fill:#D6B394;}
	.st23{fill:#A34F4D;}
	.st24{fill:#B47B61;}
	.st25{fill:#E5C292;}
	.st26{fill:#B4AFA8;}
	.st27{fill:#9E9A98;}
	.st28{fill:#F39323;}
	.st29{fill:#F9B03D;}
	.st30{fill:#50B162;}
	.st31{fill:#106B40;}
	.st32{fill:#8C633A;}
	.st33{fill:#231F20;}
	.st34{fill:#2C2F32;}
	.st35{fill:#E52328;}
	.st36{fill:#C2C3C3;}
	.st37{fill:#2DABE3;}
	.st38{fill:#F9EA31;}
	.st39{fill:#E52629;}
	.st40{fill:#746458;}
	.st41{fill:#0D71B9;}
	.st42{fill:#E52521;}
	.st43{fill:#F6D9A7;}
	.st44{fill:#F4A5A6;}
	.st45{fill:#6E6F70;}
	.st46{fill:#929497;}
	.st47{fill:#F29A26;}
	.st48{fill:#E0C399;}
	.st49{fill:#F9CBCC;}
	.st50{fill:#EBDA8C;}
	.st51{fill:#30358C;}
	.st52{fill:#F6DEB8;}
	.st53{fill:#FFFFFF;}
	.st54{fill:#959FA1;}
	.st55{fill:#6A737A;}
	.st56{fill:#6CC0A9;}
	.st57{fill:#2C7179;}
	.st58{fill:#F2F2F2;}
	.st59{fill:#D83747;}
	.st60{fill:#C92C3F;}
	.st61{fill:#E67525;}
	.st62{fill:#FFD471;}
	.st63{fill:#F0832C;}
	.st64{fill:#90CDBC;}
	.st65{fill:#1E1B3C;}
	.st66{fill:#3C3C3B;}
	.st67{fill:#E94E1B;}
	.st68{fill:#BE1622;}
	.st69{fill:#665F4A;}
	.st70{fill:#3A3320;}
	.st71{fill:#13110C;}
	.st72{fill:#EDECED;}
	.st73{fill:#24211E;}
	.st74{fill:#DBD9DA;}
	.st75{fill:#D01419;}
	.st76{fill:#E1E0E0;}
	.st77{fill:#ECECEC;}
	.st78{fill:#F8F8F9;}
	.st79{fill:#6A6621;}
	.st80{fill:#89454C;}
	.st81{fill:#CBC135;}
	.st82{fill:#F8C8CB;}
	.st83{fill:#C45853;}
	.st84{fill:#729BA5;}
	.st85{fill:#F8AB00;}
	.st86{fill:#3B3835;}
	.st87{fill:#FAD3D7;}
	.st88{fill:#ECBABB;}
	.st89{fill:#F8CFB4;}
	.st90{fill:#844C16;}
	.st91{fill:#D49F61;}
	.st92{fill:#55514F;}
	.st93{fill:#B57D44;}
	.st94{fill:#FCE1E4;}
	.st95{fill:#D5D4D4;}
	.st96{fill:#B92932;}
	.st97{fill:#97C01E;}
	.st98{fill:#00AED3;}
	.st99{fill:#FFCE00;}
	.st100{fill:#E30613;}
	.st101{fill:#F28E36;}
	.st102{fill:#9B6228;}
	.st103{fill:#F6A753;}
	.st104{fill:#CB3749;}
	.st105{fill:#E4E1E1;}
	.st106{fill:#FDEA00;}
	.st107{fill:#53BFCC;}
	.st108{fill:#C2171F;}
	.st109{fill:#EA5139;}
	.st110{fill:#0098B0;}
	.st111{fill:#F28B00;}
	.st112{fill:#898584;}
	.st113{fill:#FAB84F;}
	.st114{fill:#E74310;}
	.st115{fill:#CC5E16;}
	.st116{fill:#00A33A;}
	.st117{fill:#F18600;}
	.st118{fill:#2C2523;}
	.st119{fill:#006633;}
	.st120{fill:#063141;}
	.st121{fill:#1488A9;}
	.st122{fill:#5CBCB8;}
	.st123{fill:#00472A;}
	.st124{fill:#ECC876;}
	.st125{fill:#EBA700;}
	.st126{fill:#F4E3BC;}
	.st127{fill:#BEBBBB;}
	.st128{fill:#A29F9D;}
	.st129{fill:#72C4BE;}
	.st130{fill:#DACCA3;}
	.st131{fill:#AAC5DD;}
	.st132{fill:#1B6DA2;}
	.st133{fill:#F9B233;}
	.st134{fill:#F39200;}
	.st135{fill:#5E5957;}
	.st136{fill:#BACFDD;}
	.st137{fill:#DBC6AF;}
	.st138{fill:#B17F4A;}
	.st139{fill:#467A97;}
	.st140{fill:#95C11F;}
	.st141{fill:#1D71B8;}
	.st142{fill:#2FAC66;}
	.st143{fill:#00A19A;}
	.st144{fill:#0B3958;}
	.st145{fill:#3AAA35;}
	.st146{fill:#1B4B64;}
	.st147{fill:none;}
	.st148{fill:#EBD53E;}
	.st149{fill:#EFF0F1;}
	.st150{fill:#F1BE00;}
	.st151{fill:#DFA600;}
	.st152{fill:#DAEEEE;}
	.st153{fill:#E9E7EA;}
	.st154{fill:#DE0B15;}
	.st155{fill:#AA1918;}
	.st156{fill:#76232F;}
	.st157{fill:#DC0C1F;}
	.st158{fill:#DC3015;}
	.st159{fill:#AA7F47;}
	.st160{fill:#DAAC71;}
	.st161{fill:#342D45;}
	.st162{fill:#F6F5F9;}
	.st163{fill:#1B1814;}
	.st164{fill:#E03D13;}
	.st165{fill:#BF2B17;}
	.st166{fill:#F5F0EF;}
	.st167{fill:#F19500;}
	.st168{fill:#D8870D;}
	.st169{fill:#31AD71;}
	.st170{fill:#2F7C55;}
	.st171{fill:#1A1814;}
	.st172{fill:#4B4845;}
	.st173{fill:#FAEEF0;}
	.st174{fill:#D19B09;}
	.st175{fill:#F1D7B5;}
	.st176{fill:#FCFCFD;}
	.st177{fill:#93BEC8;}
	.st178{fill:#D8D3D2;}
	.st179{fill:#4D4843;}
	.st180{fill:#4EABB8;}
	.st181{fill:#383835;}
	.st182{fill:#D5DADB;}
	.st183{fill:#9EBABB;}
	.st184{fill:#B4181C;}
	.st185{fill:#DD6A10;}
	.st186{fill:#F0F0F1;}
	.st187{fill:#753811;}
	.st188{fill:#DB0D1B;}
	.st189{fill:#DA213C;}
	.st190{fill:#BCDBB6;}
	.st191{fill:#9A9999;}
	.st192{fill:#4DA354;}
	.st193{fill:#DBBC9A;}
	.st194{fill:#A48A7B;}
	.st195{fill:#C5C2C2;}
	.st196{fill:#CC1417;}
	.st197{fill:#44403D;}
	.st198{fill:#F8D000;}
	.st199{fill:#974493;}
	.st200{fill:#F0811A;}
	.st201{fill:#58B034;}
	.st202{fill:#5BC4E9;}
	.st203{fill:#F8D71A;}
	.st204{fill:#E52921;}
	.st205{fill:#DDAE76;}
	.st206{fill:#F9DCBB;}
	.st207{fill:#CC6F22;}
	.st208{fill:#9CCDC5;}
	.st209{fill:#49998B;}
	.st210{fill:#9F3148;}
	.st211{fill:#DDA519;}
	.st212{fill:#EDC4A2;}
	.st213{fill:#5F3B17;}
	.st214{fill:#191517;}
	.st215{fill:#D9A67E;}
	.st216{fill:#C47713;}
	.st217{fill:#A91917;}
	.st218{fill:#DBC8CE;}
	.st219{fill:#9C6E80;}
	.st220{fill:#BC738E;}
	.st221{fill:#1E1E1C;}
	.st222{fill:#EAEAEA;}
	.st223{fill:#4E4D4D;}
	.st224{fill:#E7E6E6;}
	.st225{fill:#FED063;}
	.st226{fill:#FCBF0A;}
	.st227{fill:#AA5A9F;}
	.st228{fill:#833081;}
	.st229{fill:#882C87;}
	.st230{fill:#A4B639;}
	.st231{fill:#B9C95E;}
	.st232{fill:#D690BB;}
	.st233{fill:#AB6F97;}
</style>
<g>
	<g>
		<path class="st142" d="M277,172.2c-0.2-0.1-0.3-0.2-0.5-0.4c-0.1-0.1-0.2-0.2-0.2-0.3c-0.1-0.8-0.3-1.7-0.4-2.5
			c-1.3-18.9-0.6-16.4-19.8-12.7c-0.6-3.9,0.9-12.7-2.7-12.7c-0.1,0-25.4,0.2-28.3,0.3c0-1.6-0.1-3.2-0.1-4.8l0-8.4
			c11.7-0.3,16.6,0.1,25.1,0.3c12.1,0.3,14.8,0.8,14.7-1.1c-0.2-2.5-0.6-10-4.3-20.2c-4.4-12.1-11.4-16.4-15.1-19.4
			c0-0.1,4.9-12.9,5.8-13.1c3.9-1.2,6.2-3.2,5.7-7.7c-0.5-4.4-7.7-7-11.4-1.8c-1.7,2.4-1.5,5.1-0.5,7.9c0.2,0.5,0.2,0.9,0,1.3
			c-0.4,1-0.8,2.1-1.2,3.1c-0.9,2.4-1.7,4.7-2.6,7.1c-0.1,0.3-0.2,0.5-0.3,0.8c-0.3-0.1-0.6-0.2-0.8-0.3c-9-3.9-20.6-4.5-35,1.9
			c-1.5-2.7-2.9-5.4-4.1-8.2c1.5-1.4,2.7-2.7,3.2-5.6c0.3-2.1-0.5-3.8-2.4-4.9c-0.9-0.5-1.9-0.8-2.9-1c-1.5-0.2-3,0-4.2,0.8
			c-2.3,1.6-3.5,3.8-3.1,6.7c0.2,1.6,0.9,3,2.4,3.8c0.6,0.3,1.2,0.6,1.8,0.9c1.4,3.4,2.9,6.8,4.3,10.3c-1.7,1.3-8.1,5.3-13.2,12.1
			c-6.9,9.3-13.5,27.3-9,27.1c9.2-0.3,7.7-0.3,13-0.4c3.1-0.1,6.2-0.2,9.2-0.3c2.2-0.1,4.5-0.1,6.7-0.1c2.9,0,5.8-0.1,8.7-0.1
			c0.9,0,1.7,0,2.6,0c0.5,0,1,0,1.6,0l0.1,13.1c-29.5-0.1-25.7-1.8-25.5,16.4c-3.5,0.2-0.3,0.2-10.2,0.7c-0.7,0-1.5,0.1-2.2,0.2
			c-9.8,1.1-8,0-7.9-3.8c2.8-1.8,4.5-6.6,0-10c-4.3-2.8-15.4,4.2-6.3,10.6c0,2.4,0,2,0.1,5.9c0,1,0.6,1.7,1.4,2.3
			c1,0.7,2.2,1,3.4,1.2c1.3,0.2,2.6,0.3,3.9,0.3c3.9,0,7.7,0,11.6-0.1c2.4,0,4.9-0.2,7.3-0.3c0,0,0,0.1,0,0.2
			c2.9,16.9-4.4,12.3,16.2,13.5c0.1,2.8,0.2,5.5,0.3,8.2c-12.3-0.1-13.4,19.1,0.2,17.8c10-0.7,13.2-12.9,4.8-17.5
			c-0.3-2.3,0.2-8.2,0.2-8.2c6.7,0.4,13.3,0,19.9-0.6c0.5,3.5,0.9,6.8,1.4,10.2c-12.4,4-5.6,17.2,4.6,16.2c9.5-1.5,7.6-16,0.2-16.4
			c-0.3-1.7-0.2-2.4-0.5-10.5c19-1.8,14.2,1.9,14.2-16.4c0.7-0.1,9.2-1.5,9.7-1.6c0.2,0.8,0-1,1.4,10.8c-8.3,6.4,3.6,16.1,10.4,8.1
			C280.4,178.6,279.5,173.9,277,172.2z M243.2,97.3c4.5,0,8.2,3.7,8.2,8.3c0,4.6-3.7,8.3-8.2,8.3c-4.5,0-8.2-3.7-8.2-8.3
			C235,101,238.7,97.3,243.2,97.3z M200.6,114c-4.5,0-8.2-3.7-8.2-8.3c0-4.6,3.7-8.3,8.2-8.3c4.5,0,8.2,3.7,8.2,8.3
			C208.8,110.3,205.1,114,200.6,114z"/>
		<g>
			<g>
				<ellipse cx="245.8" cy="102.6" rx="2" ry="2"/>
				<ellipse cx="203.2" cy="102.7" rx="2" ry="2"/>
				<path d="M202.4,127.5c0,0.6-0.1,1.1-0.1,1.7l40.1-0.2c0-0.1,0.1-0.2,0.1-0.2C243.9,104.2,203.7,101.5,202.4,127.5z"/>
			</g>
			<path d="M247.4,161.6h-42.7c-1.8,0-3.2-1.4-3.2-3.2v-5.3c0-1.8,1.4-3.2,3.2-3.2h42.7c1.8,0,3.2,1.4,3.2,3.2v5.3
				C250.6,160.2,249.1,161.6,247.4,161.6z"/>
		</g>
		<g>
			<ellipse class="st53" cx="241.5" cy="155.8" rx="4.3" ry="3.9"/>
			<ellipse class="st53" cx="231.2" cy="155.8" rx="4.3" ry="3.9"/>
			<ellipse class="st53" cx="220.9" cy="155.8" rx="4.3" ry="3.9"/>
			<ellipse class="st53" cx="210.6" cy="155.8" rx="4.3" ry="3.9"/>
			<g>
				<path class="st53" d="M221.9,127.6c-1.9,0-3.8,0-5.6,0C214.5,118.7,222.5,104.9,221.9,127.6z"/>
				<path class="st53" d="M228.5,127.6c-1.4,0-2.7,0-4.1,0.1C225.9,104.8,230.6,120.1,228.5,127.6z"/>
				<path class="st53" d="M213.7,127.6c-1.3,0-2.6,0-3.8,0C209.5,126.3,212.2,114.5,213.7,127.6z"/>
				<path class="st53" d="M231.2,127.6c1.3,0,2.6,0,3.8,0C235.4,126.3,232.6,114.5,231.2,127.6z"/>
			</g>
		</g>
	</g>
	<g>
		<path class="st143" d="M190.5,278.8c-2.6,0-4.9,1.5-6.2,3.7h-25.7c-1.7-6.3-4.6-11.8-8.2-15.9c19.1-3.6,32.9-13.7,32.9-25.7
			c0-14.5-20.1-26.3-45.5-27v-6.5c3.7-1.1,6.4-3.7,6.4-6.7c0-4-4.6-7.3-10.3-7.3c-5.7,0-10.3,3.3-10.3,7.3c0,3.1,2.7,5.7,6.5,6.8
			v6.5c-24.1,1.5-42.9,12.9-42.9,26.9c0,11.9,13.6,22,32.6,25.6c-3.7,4.1-6.6,9.6-8.3,15.9h-22c-1.3-2.2-3.6-3.7-6.2-3.7
			c-4,0-7.3,3.5-7.3,7.8s3.2,7.8,7.3,7.8c3,0,5.6-1.9,6.7-4.7h20.1c-0.3,2.2-0.4,4.6-0.4,6.9c0,14.5,5.6,27,13.7,33.3v15.4
			c-3.5,1.1-6.1,4.4-6.1,8.3c0,4.8,3.8,8.7,8.6,8.7c4.7,0,8.6-3.9,8.6-8.7c0-2.7-1.2-5.1-3.1-6.7v-13.2c1.3,0.3,2.6,0.4,3.9,0.4
			c2.3,0,4.5-0.4,6.5-1.3v13.9c-1.9,1.6-3.2,4-3.2,6.7c0,4.8,3.9,8.7,8.8,8.7s8.8-3.9,8.8-8.7c0-3.9-2.7-7.2-6.3-8.3v-17.8
			c6.5-6.8,10.8-18,10.8-30.7c0-2.4-0.2-4.7-0.4-6.9h23.8c1.1,2.8,3.7,4.7,6.7,4.7c4,0,7.3-3.5,7.3-7.8S194.5,278.8,190.5,278.8z
			 M159.7,225.5c4.7,0,8.4,3.2,8.4,7.1c0,3.9-3.8,7.1-8.4,7.1s-8.4-3.2-8.4-7.1C151.2,228.7,155,225.5,159.7,225.5z M112.2,239.8
			c-4.7,0-8.4-3.2-8.4-7.1c0-3.9,3.8-7.1,8.4-7.1s8.4,3.2,8.4,7.1C120.6,236.6,116.8,239.8,112.2,239.8z"/>
		<g>
			<g>
				<ellipse cx="157.8" cy="234.7" rx="2" ry="2"/>
				<ellipse cx="115.2" cy="234.8" rx="2" ry="2"/>
				<path d="M155.4,256h-38.9c-1.8,0-3.2-1.4-3.2-3.2v-5.3c0-1.8,1.4-3.2,3.2-3.2h38.9c1.8,0,3.2,1.4,3.2,3.2v5.3
					C158.6,254.6,157.2,256,155.4,256z"/>
			</g>
			<ellipse cx="135.4" cy="294.9" rx="12.3" ry="22"/>
		</g>
		<g>
			<g>
				<path class="st53" d="M153.9,254.3h-4.4c-1.3,0-2.3-1-2.3-2.3v-4.2c0-1.3,1-2.3,2.3-2.3h4.4c1.3,0,2.3,1,2.3,2.3v4.2
					C156.2,253.3,155.2,254.3,153.9,254.3z"/>
				<path class="st53" d="M143.5,254.3h-4.4c-1.3,0-2.3-1-2.3-2.3v-4.2c0-1.3,1-2.3,2.3-2.3h4.4c1.3,0,2.3,1,2.3,2.3v4.2
					C145.8,253.3,144.8,254.3,143.5,254.3z"/>
				<path class="st53" d="M133.1,254.3h-4.4c-1.3,0-2.3-1-2.3-2.3v-4.2c0-1.3,1-2.3,2.3-2.3h4.4c1.3,0,2.3,1,2.3,2.3v4.2
					C135.4,253.3,134.4,254.3,133.1,254.3z"/>
				<path class="st53" d="M122.7,254.3h-4.4c-1.3,0-2.3-1-2.3-2.3v-4.2c0-1.3,1-2.3,2.3-2.3h4.4c1.3,0,2.3,1,2.3,2.3v4.2
					C125,253.3,124,254.3,122.7,254.3z"/>
			</g>
			<g>
				<ellipse class="st53" cx="135.4" cy="282.7" rx="4.5" ry="4.6"/>
				<ellipse class="st53" cx="135.4" cy="293.8" rx="4.5" ry="4.6"/>
				<ellipse class="st53" cx="135.4" cy="304.8" rx="4.5" ry="4.6"/>
			</g>
		</g>
	</g>
	<g>
		<path class="st141" d="M355.7,259c-1.1-5-6-8.1-10.9-7c-2.7,0.6-4.8,2.4-6,4.7h-5.5v-14.3c0-6.5-5.3-11.9-11.9-11.9h-63.7
			c-6.5,0-11.9,5.3-11.9,11.9v14.3h-6.7c-1.2-2.3-3.3-4.1-6-4.7c-4.9-1.1-9.7,2-10.9,7c-1.1,5,1.9,9.9,6.8,11
			c4.2,1,8.4-1.3,10.2-5.1h6.6v14.8c0,6.5,5.3,11.9,11.9,11.9h28.4v9.4h-13.5v15.6h-8.1c-0.9-3.2-3.6-5.5-6.8-5.5
			c-1,0-2,0.2-2.8,0.6l-4.1-5c1-1.3,1.7-3.1,1.7-5c0-4.3-3.2-7.7-7.1-7.7c-3.9,0-7.1,3.4-7.1,7.7s3.2,7.7,7.1,7.7
			c0.4,0,0.8,0,1.2-0.1l4.8,5.9c-0.5,1.1-0.8,2.2-0.8,3.5c0,4.3,3.2,7.7,7.1,7.7c3,0,5.6-2,6.6-4.9h8.3V349h2.9c0,0.4,0,0.8,0,1.2
			c-11.6-0.1-12.7,18.1,0.2,16.8c9.5-0.6,12.5-12.2,4.5-16.6c-0.1-0.4-0.1-0.9-0.1-1.5h20.1c0.1,0.9,0.3,1.9,0.4,2.8
			c-11.7,3.8-5.3,16.3,4.3,15.4c9-1.4,7.2-15.1,0.2-15.5c-0.1-0.8-0.2-1.4-0.3-2.6h2.7v-27.5h8.1c1,2.9,3.6,4.9,6.6,4.9
			c3.9,0,7.1-3.4,7.1-7.7c0-1.3-0.3-2.5-0.8-3.5l4.8-5.9c0.4,0.1,0.8,0.1,1.2,0.1c3.9,0,7.1-3.4,7.1-7.7s-3.2-7.7-7.1-7.7
			c-3.9,0-7.1,3.4-7.1,7.7c0,1.9,0.6,3.6,1.7,5l-4.1,5c-0.9-0.4-1.8-0.6-2.8-0.6c-3.2,0-5.9,2.3-6.8,5.5h-7.9V301h-13.1v-9.4h26.9
			c6.5,0,11.9-5.3,11.9-11.9v-14.8h5.5c1.8,3.8,6,6.1,10.2,5.1C353.8,268.9,356.8,264,355.7,259z"/>
		<ellipse class="st53" cx="267" cy="259.6" rx="12.1" ry="11.9"/>
		<ellipse class="st53" cx="313.4" cy="259.6" rx="12.1" ry="11.9"/>
		<g>
			<path d="M270.8,274.2c-0.3,0.9-0.5,1.9-0.5,2.9c0,7,8.9,12.8,20,12.8c11,0,20-5.7,20-12.8c0-1-0.2-2-0.5-2.9H270.8z"/>
			<ellipse cx="312.3" cy="264.5" rx="2.1" ry="2.1"/>
			<ellipse cx="270.5" cy="264.5" rx="2.1" ry="2.1"/>
			<path d="M297.9,342.5h-12c-2.8,0-5-2.3-5-5v-25c0-2.8,2.3-5,5-5h12c2.8,0,5,2.3,5,5v25C302.9,340.2,300.6,342.5,297.9,342.5z"/>
		</g>
		<g>
			<g>
				<path class="st53" d="M290.9,275.4c1.8,0,3.6,0,5.3,0C297.9,283.9,290.3,297,290.9,275.4z"/>
				<path class="st53" d="M284.6,275.5c1.3,0,2.6,0,3.9-0.1C287.1,297.1,282.6,282.6,284.6,275.5z"/>
				<path class="st53" d="M298.6,275.4c1.3,0,2.4,0,3.6,0C302.6,276.7,300,287.9,298.6,275.4z"/>
				<path class="st53" d="M282.1,275.4c-1.3,0-2.4,0-3.6,0C278.1,276.7,280.7,287.9,282.1,275.4z"/>
			</g>
			<g>
				<rect x="286.1" y="311.7" class="st53" width="12.3" height="7.4"/>
				<rect x="286.1" y="330.8" class="st53" width="12.3" height="7.4"/>
				<ellipse class="st53" cx="292.3" cy="325" rx="5" ry="4.2"/>
			</g>
		</g>
	</g>
</g>
</svg>
